<svg xmlns="http://www.w3.org/2000/svg" viewBox="0 0 384 384"><path d="M64 0v80H0v144h64v160h224l96-96V0H64zM16 208V96h240v112H16zm272 153.376V288h73.376L288 361.376zM368 272h-96v96H80V224h192V80H80V16h288v256z"/><path d="M59.088 117.856v26.208H42.96v-26.208H29.136V186.4H42.96v-30.432h16.128V186.4h13.824v-68.544zM81.856 117.856v11.328h14.96V186.4h13.84v-57.216h14.976v-11.328zM176.144 117.856l-9.888 48.384h-.192l-9.792-48.384h-20.56V186.4h12.672v-54.72h.192l12.192 54.72h10.752l12.192-54.72h.208v54.72h12.672v-68.544zM220.504 175.072v-57.216h-13.84V186.4h38.32v-11.328z"/></svg>