<svg xmlns="http://www.w3.org/2000/svg" viewBox="0 0 463 463"><path d="M455.5 59.297H7.5a7.5 7.5 0 0 0-7.5 7.5v329.407a7.5 7.5 0 0 0 7.5 7.5h448a7.5 7.5 0 0 0 7.5-7.5V66.797a7.5 7.5 0 0 0-7.5-7.5zm-7.5 15v55.159H15V74.297h433zM15 388.703V144.456h433v244.248H15z"/><path d="M147.406 169.902H59.411c-4.143 0-7.5 3.358-7.5 7.5s3.357 7.5 7.5 7.5h87.995c4.143 0 7.5-3.358 7.5-7.5s-3.357-7.5-7.5-7.5zM147.406 205.573H59.411c-4.143 0-7.5 3.358-7.5 7.5s3.357 7.5 7.5 7.5h87.995c4.143 0 7.5-3.358 7.5-7.5s-3.357-7.5-7.5-7.5zM147.406 241.244H59.411c-4.143 0-7.5 3.358-7.5 7.5s3.357 7.5 7.5 7.5h87.995c4.143 0 7.5-3.358 7.5-7.5s-3.357-7.5-7.5-7.5zM147.406 276.915H59.411c-4.143 0-7.5 3.358-7.5 7.5s3.357 7.5 7.5 7.5h87.995c4.143 0 7.5-3.358 7.5-7.5s-3.357-7.5-7.5-7.5zM147.406 312.586H59.411c-4.143 0-7.5 3.358-7.5 7.5s3.357 7.5 7.5 7.5h87.995c4.143 0 7.5-3.358 7.5-7.5s-3.357-7.5-7.5-7.5zM147.406 348.258H59.411c-4.143 0-7.5 3.358-7.5 7.5s3.357 7.5 7.5 7.5h87.995c4.143 0 7.5-3.358 7.5-7.5s-3.357-7.5-7.5-7.5zM275.497 276.915h-87.995c-4.143 0-7.5 3.358-7.5 7.5s3.357 7.5 7.5 7.5h87.995c4.143 0 7.5-3.358 7.5-7.5s-3.357-7.5-7.5-7.5zM275.497 312.586h-87.995c-4.143 0-7.5 3.358-7.5 7.5s3.357 7.5 7.5 7.5h87.995c4.143 0 7.5-3.358 7.5-7.5s-3.357-7.5-7.5-7.5zM275.497 348.258h-87.995c-4.143 0-7.5 3.358-7.5 7.5s3.357 7.5 7.5 7.5h87.995c4.143 0 7.5-3.358 7.5-7.5s-3.357-7.5-7.5-7.5zM275.497 169.902h-87.995a7.5 7.5 0 0 0-7.5 7.5v71.342a7.5 7.5 0 0 0 7.5 7.5h87.995a7.5 7.5 0 0 0 7.5-7.5v-71.342a7.5 7.5 0 0 0-7.5-7.5zm-7.5 71.342h-72.995v-56.342h72.995v56.342zM403.589 241.244h-87.995c-4.143 0-7.5 3.358-7.5 7.5s3.357 7.5 7.5 7.5h87.995a7.5 7.5 0 0 0 0-15zM403.589 205.573h-87.995c-4.143 0-7.5 3.358-7.5 7.5s3.357 7.5 7.5 7.5h87.995a7.5 7.5 0 0 0 0-15zM403.589 169.902h-87.995c-4.143 0-7.5 3.358-7.5 7.5s3.357 7.5 7.5 7.5h87.995a7.5 7.5 0 0 0 0-15zM403.589 276.915h-87.995a7.5 7.5 0 0 0-7.5 7.5v71.342a7.5 7.5 0 0 0 7.5 7.5h87.995a7.5 7.5 0 0 0 7.5-7.5v-71.342a7.5 7.5 0 0 0-7.5-7.5zm-7.5 71.343h-72.995v-56.342h72.995v56.342zM106.166 123.376H425.14a7.5 7.5 0 0 0 7.5-7.5v-28a7.5 7.5 0 0 0-7.5-7.5H106.166a7.5 7.5 0 0 0-7.5 7.5v28a7.5 7.5 0 0 0 7.5 7.5zm7.5-28H417.64v13H113.666v-13zM32.353 109.379c1.98 0 3.91-.8 5.311-2.2a7.577 7.577 0 0 0 2.189-5.3c0-1.97-.8-3.91-2.189-5.31a7.585 7.585 0 0 0-5.311-2.19c-1.97 0-3.91.8-5.3 2.19a7.55 7.55 0 0 0-2.2 5.31c0 1.97.8 3.91 2.2 5.3 1.4 1.4 3.33 2.2 5.3 2.2zM56.593 109.379c1.97 0 3.91-.8 5.3-2.2 1.4-1.4 2.2-3.33 2.2-5.3 0-1.98-.8-3.91-2.2-5.31-1.39-1.39-3.33-2.19-5.3-2.19s-3.9.8-5.3 2.19a7.55 7.55 0 0 0-2.2 5.31c0 1.97.8 3.91 2.2 5.3a7.543 7.543 0 0 0 5.3 2.2zM80.833 109.379c1.979 0 3.91-.8 5.3-2.2 1.4-1.4 2.2-3.33 2.2-5.3 0-1.98-.8-3.91-2.2-5.31a7.543 7.543 0 0 0-5.3-2.19c-1.971 0-3.91.8-5.311 2.19a7.583 7.583 0 0 0-2.189 5.31c0 1.97.8 3.9 2.189 5.3a7.571 7.571 0 0 0 5.311 2.2z"/></svg>